PathFileType	4	(X/Y/Z)	c:/Users/goper/Files/vsCode/490R/osim_files/C12/C12_Fast_03.trc
DataRate	CameraRate	NumFrames	NumMarkers	Units                	OrigDataRate	OrigDataStartFrame	OrigNumFrames
120.00	120.00	4	36	mm	120.0	449	1196
                Frame#	Time	LPSIS			LASIS			LTH1			LTH2			LTH3			LTH4			LLFE			LMFE			LSH1			LSH2			LSH3			LSH4			LLMAL			LMMAL			LCAL			LMTP5			LTOE			LMTP1			RPSIS			RASIS			RTH1			RTH2			RTH3			RTH4			RLFE			RMFE			RSH1			RSH2			RSH3			RSH4			RLMAL			RMMAL			RCAL			RMTP1			RTOE			RMTP5		
		X1	Y1	Z1	X2	Y2	Z2	X3	Y3	Z3	X4	Y4	Z4	X5	Y5	Z5	X6	Y6	Z6	X7	Y7	Z7	X8	Y8	Z8	X9	Y9	Z9	X10	Y10	Z10	X11	Y11	Z11	X12	Y12	Z12	X13	Y13	Z13	X14	Y14	Z14	X15	Y15	Z15	X16	Y16	Z16	X17	Y17	Z17	X18	Y18	Z18	X19	Y19	Z19	X20	Y20	Z20	X21	Y21	Z21	X22	Y22	Z22	X23	Y23	Z23	X24	Y24	Z24	X25	Y25	Z25	X26	Y26	Z26	X27	Y27	Z27	X28	Y28	Z28	X29	Y29	Z29	X30	Y30	Z30	X31	Y31	Z31	X32	Y32	Z32	X33	Y33	Z33	X34	Y34	Z34	X35	Y35	Z35	X36	Y36	Z36

449	3.73333	1672.22986	1067.90063	352.72379	1500.97876	1025.69910	424.50220	0.00000	0.00000	0.00000	1553.80444	696.96667	485.73306	1508.61035	754.01166	496.79510	1502.36584	708.56561	498.58548	1487.37830	529.31915	474.69931	1460.20422	512.23920	348.07379	1585.62939	503.15808	477.88754	1622.61731	474.12360	483.30530	1552.27441	453.88422	485.87549	1594.95032	432.63165	485.96976	1839.46594	283.53745	425.98279	1814.64600	266.93213	350.10022	0.00000	0.00000	0.00000	1844.93298	128.23347	444.54187	1776.41736	100.68678	386.08997	0.00000	0.00000	0.00000	1676.45068	1068.77637	239.05577	1490.11511	1035.28857	171.47676	0.00000	0.00000	0.00000	0.00000	0.00000	0.00000	0.00000	0.00000	0.00000	1574.26221	748.99408	490.38739	0.00000	0.00000	0.00000	1490.44336	537.32642	314.21292	1550.18787	431.38522	163.27336	1549.31165	387.24463	159.37009	1486.89734	421.89206	172.95593	1497.48145	381.00452	166.49896	1552.78699	99.21638	220.26254	1536.58801	115.40730	302.32828	1628.78540	67.42185	261.03339	1414.04517	48.00072	304.87198	1372.32141	69.08858	272.37604	1405.71167	39.27758	196.88939
450	3.74167	1660.24084	1070.95618	352.10471	1489.56873	1028.61462	423.31677	0.00000	0.00000	0.00000	1535.71582	700.38763	485.46835	1491.41577	758.24072	496.05060	1484.43884	712.78540	497.93881	1465.97815	533.78778	473.57211	1438.82275	517.56213	346.91763	1563.76648	505.62216	476.95566	1600.05798	475.56430	482.19342	1529.39954	457.04941	484.66434	1570.29626	433.39374	484.14816	1813.69641	278.11926	424.89993	1783.36060	265.87640	350.59943	0.00000	0.00000	0.00000	1811.67346	124.29653	444.95883	1742.09631	99.55035	386.69592	0.00000	0.00000	0.00000	1665.20972	1071.57947	238.25200	1478.71167	1037.27588	170.71234	0.00000	0.00000	0.00000	1493.25073	964.62622	297.13437	0.00000	0.00000	0.00000	0.00000	0.00000	0.00000	0.00000	0.00000	0.00000	1486.57764	538.01202	314.03305	1548.44824	432.08527	163.30179	1547.86853	388.01636	159.38588	1485.23303	422.35886	172.83105	1496.01892	381.53754	166.40417	1552.53430	99.72675	220.30185	1536.12756	115.92805	302.25427	1628.43628	68.46156	260.68063	1413.72852	47.17764	304.26187	1371.65283	68.37443	272.29276	1405.53564	39.10678	196.90784
451	3.75000	1648.31348	1073.80713	351.48660	1478.05603	1031.37671	422.11884	1531.22522	745.89417	482.92834	1518.02271	703.91925	485.38348	1472.75781	760.79968	495.53415	1466.49915	716.86609	496.99188	1444.56775	538.11816	472.87186	1417.93250	522.77191	345.48090	1542.49194	507.83084	475.77515	1577.58850	476.38568	481.03174	1506.46631	459.69016	483.23181	1545.83069	433.70154	482.87003	1787.35388	271.73996	423.63007	1758.44714	259.56161	348.72842	1827.80664	306.69229	372.42679	1778.44470	119.46056	445.15924	1707.22766	97.33997	387.75156	1743.00745	105.37535	341.29883	1653.04578	1073.84265	237.76721	1468.04871	1038.93066	169.83264	0.00000	0.00000	0.00000	0.00000	0.00000	0.00000	0.00000	0.00000	0.00000	1533.32129	747.25311	119.63659	0.00000	0.00000	0.00000	1483.53845	538.50616	314.08398	1546.84448	432.93060	163.52467	1546.58557	388.82767	159.48769	1483.81519	422.90265	172.70868	1494.75403	382.14233	166.30687	1552.85474	100.65528	219.96028	1535.75012	116.47426	302.17203	1629.67798	70.25760	260.09369	1413.53857	47.09333	304.24677	1371.44885	68.08394	272.26047	1405.43713	38.97137	196.88934
452	3.75833	1636.48950	1076.33240	351.02710	1462.39954	1033.68274	422.63678	1514.34302	748.71674	482.85614	1500.43188	707.29547	485.20770	1456.07227	764.84106	494.73279	1448.89294	721.02814	496.25113	1423.44116	541.96191	471.44073	1396.62354	528.30682	343.89050	1521.56921	509.49106	474.48434	1555.43262	476.68323	479.82144	1483.81812	462.13022	481.76868	1522.43188	434.87674	481.60651	1760.47998	264.55673	422.35095	1730.58655	253.62436	347.60223	1801.71509	298.55539	371.04236	1744.74683	114.16430	445.37552	1672.50903	94.61428	389.04547	1708.47241	101.13676	341.68808	1641.43591	1076.04675	237.32106	1457.11853	1040.25708	169.28777	1562.24023	735.55737	135.17522	0.00000	0.00000	0.00000	0.00000	0.00000	0.00000	0.00000	0.00000	0.00000	1478.94519	528.35492	180.31366	1482.17224	538.52771	313.28131	1545.58386	433.77054	163.79922	1545.64404	389.79156	159.74759	1482.49670	423.39142	172.63350	1493.66260	382.76282	166.12489	1552.63525	101.23067	220.05133	1535.21594	117.05918	302.22357	1629.41870	70.87320	260.11829	1413.36816	47.02039	304.22824	1371.29248	67.72379	272.15485	1405.30640	38.82486	196.90521
